<svg width="1043.1125px" height="141.2px" xmlns="http://www.w3.org/2000/svg" viewBox="-271.55625 4.400000000000006 1043.1125 141.2" style="background: rgba(0, 0, 0, 0);" preserveAspectRatio="xMidYMid"><defs><filter id="editing-extrusion" x="-100%" y="-100%" width="300%" height="300%"><feFlood result="color1" flood-color="#444"></feFlood><feConvolveMatrix order="8,8" divisor="1" kernelMatrix="1 0 0 0 0 0 0 0 0 1 0 0 0 0 0 0 0 0 1 0 0 0 0 0 0 0 0 1 0 0 0 0 0 0 0 0 1 0 0 0 0 0 0 0 0 1 0 0 0 0 0 0 0 0 1 0 0 0 0 0 0 0 0 1" in="SourceAlpha" result="extrude"></feConvolveMatrix><feComposite in="color1" in2="extrude" result="comp-extrude" operator="in"></feComposite><feOffset dx="4" dy="4" in="comp-extrude" result="offset-extrude"></feOffset><feMerge><feMergeNode in="offset-extrude"></feMergeNode><feMergeNode in="SourceGraphic"></feMergeNode></feMerge></filter></defs><g filter="url(#editing-extrusion)"><g transform="translate(-124.40002071857452, 107.9900016784668)"><path d="M1.41-44.61L7.68-44.61L21.57-6.27L35.58-44.61L41.79-44.61L24.96 0L18.24 0L1.41-44.61ZM46.02-17.66L46.02-17.66Q46.02-23.04 48.19-27.10L48.19-27.10L48.19-27.10Q50.37-31.17 54.18-33.41L54.18-33.41L54.18-33.41Q57.98-35.65 62.66-35.65L62.66-35.65L62.66-35.65Q67.26-35.65 70.66-33.66L70.66-33.66L70.66-33.66Q74.05-31.68 75.71-28.67L75.71-28.67L75.71-35.07L81.60-35.07L81.60 0L75.71 0L75.71-6.53L75.71-6.53Q73.98-3.46 70.56-1.44L70.56-1.44L70.56-1.44Q67.14 0.58 62.59 0.58L62.59 0.58L62.59 0.58Q57.92 0.58 54.14-1.73L54.14-1.73L54.14-1.73Q50.37-4.03 48.19-8.19L48.19-8.19L48.19-8.19Q46.02-12.35 46.02-17.66L46.02-17.66ZM75.71-17.60L75.71-17.60Q75.71-21.57 74.11-24.51L74.11-24.51L74.11-24.51Q72.51-27.46 69.79-29.02L69.79-29.02L69.79-29.02Q67.07-30.59 63.81-30.59L63.81-30.59L63.81-30.59Q60.54-30.59 57.86-29.06L57.86-29.06L57.86-29.06Q55.17-27.52 53.57-24.58L53.57-24.58L53.57-24.58Q51.97-21.63 51.97-17.66L51.97-17.66L51.97-17.66Q51.97-13.63 53.57-10.66L53.57-10.66L53.57-10.66Q55.17-7.68 57.86-6.11L57.86-6.11L57.86-6.11Q60.54-4.54 63.81-4.54L63.81-4.54L63.81-4.54Q67.07-4.54 69.79-6.11L69.79-6.11L69.79-6.11Q72.51-7.68 74.11-10.66L74.11-10.66L74.11-10.66Q75.71-13.63 75.71-17.60L75.71-17.60ZM91.46-47.36L97.28-47.36L97.28 0L91.46 0L91.46-47.36ZM107.20-47.36L113.02-47.36L113.02 0L107.20 0L107.20-47.36ZM154.94-19.01L154.94-19.01Q154.94-17.41 154.75-15.55L154.75-15.55L126.72-15.55L126.72-15.55Q126.98-10.37 130.21-7.36L130.21-7.36L130.21-7.36Q133.44-4.35 138.11-4.35L138.11-4.35L138.11-4.35Q141.89-4.35 144.42-6.11L144.42-6.11L144.42-6.11Q146.94-7.87 147.97-10.82L147.97-10.82L154.24-10.82L154.24-10.82Q152.83-5.76 148.61-2.59L148.61-2.59L148.61-2.59Q144.38 0.58 138.11 0.58L138.11 0.58L138.11 0.58Q133.12 0.58 129.18-1.66L129.18-1.66L129.18-1.66Q125.25-3.90 123.01-8.03L123.01-8.03L123.01-8.03Q120.77-12.16 120.77-17.60L120.77-17.60L120.77-17.60Q120.77-23.04 122.94-27.14L122.94-27.14L122.94-27.14Q125.12-31.23 129.06-33.44L129.06-33.44L129.06-33.44Q132.99-35.65 138.11-35.65L138.11-35.65L138.11-35.65Q143.10-35.65 146.91-33.47L146.91-33.47L146.91-33.47Q150.72-31.30 152.83-27.52L152.83-27.52L152.83-27.52Q154.94-23.74 154.94-19.01L154.94-19.01ZM148.93-19.78L148.93-19.78Q148.93-23.23 147.46-25.70L147.46-25.70L147.46-25.70Q145.98-28.16 143.46-29.44L143.46-29.44L143.46-29.44Q140.93-30.72 137.86-30.72L137.86-30.72L137.86-30.72Q133.38-30.72 130.24-27.81L130.24-27.81L130.24-27.81Q127.10-24.90 126.78-19.78L126.78-19.78L148.93-19.78ZM158.46-35.07L164.99-35.07L175.87-6.78L186.82-35.07L192.83-35.07L171.71 16.51L165.63 16.51L172.61-0.38L158.46-35.07ZM231.62-44.61L231.62-44.61Q238.91-44.61 244.26-41.89L244.26-41.89L244.26-41.89Q249.60-39.17 252.45-34.11L252.45-34.11L252.45-34.11Q255.30-29.06 255.30-22.21L255.30-22.21L255.30-22.21Q255.30-15.36 252.45-10.34L252.45-10.34L252.45-10.34Q249.60-5.31 244.26-2.66L244.26-2.66L244.26-2.66Q238.91 0 231.62 0L231.62 0L217.73 0L217.73-44.61L231.62-44.61ZM231.62-4.48L231.62-4.48Q240.19-4.48 244.77-9.18L244.77-9.18L244.77-9.18Q249.34-13.89 249.34-22.21L249.34-22.21L249.34-22.21Q249.34-30.53 244.77-35.20L244.77-35.20L244.77-35.20Q240.19-39.87 231.62-39.87L231.62-39.87L223.55-39.87L223.55-4.48L231.62-4.48ZM265.98-40.77L265.98-40.77Q264.32-40.77 263.17-41.92L263.17-41.92L263.17-41.92Q262.02-43.07 262.02-44.74L262.02-44.74L262.02-44.74Q262.02-46.40 263.17-47.55L263.17-47.55L263.17-47.55Q264.32-48.70 265.98-48.70L265.98-48.70L265.98-48.70Q267.58-48.70 268.70-47.55L268.70-47.55L268.70-47.55Q269.82-46.40 269.82-44.74L269.82-44.74L269.82-44.74Q269.82-43.07 268.70-41.92L268.70-41.92L268.70-41.92Q267.58-40.77 265.98-40.77L265.98-40.77ZM262.98-35.07L268.80-35.07L268.80 0L262.98 0L262.98-35.07ZM293.18-35.65L293.18-35.65Q297.73-35.65 301.15-33.66L301.15-33.66L301.15-33.66Q304.58-31.68 306.24-28.67L306.24-28.67L306.24-35.07L312.13-35.07L312.13 0.77L312.13 0.77Q312.13 5.57 310.08 9.31L310.08 9.31L310.08 9.31Q308.03 13.06 304.22 15.17L304.22 15.17L304.22 15.17Q300.42 17.28 295.36 17.28L295.36 17.28L295.36 17.28Q288.45 17.28 283.84 14.02L283.84 14.02L283.84 14.02Q279.23 10.75 278.40 5.12L278.40 5.12L284.16 5.12L284.16 5.12Q285.12 8.32 288.13 10.27L288.13 10.27L288.13 10.27Q291.14 12.22 295.36 12.22L295.36 12.22L295.36 12.22Q300.16 12.22 303.20 9.22L303.20 9.22L303.20 9.22Q306.24 6.21 306.24 0.77L306.24 0.77L306.24-6.59L306.24-6.59Q304.51-3.52 301.12-1.47L301.12-1.47L301.12-1.47Q297.73 0.58 293.18 0.58L293.18 0.58L293.18 0.58Q288.51 0.58 284.70-1.73L284.70-1.73L284.70-1.73Q280.90-4.03 278.72-8.19L278.72-8.19L278.72-8.19Q276.54-12.35 276.54-17.66L276.54-17.66L276.54-17.66Q276.54-23.04 278.72-27.10L278.72-27.10L278.72-27.10Q280.90-31.17 284.70-33.41L284.70-33.41L284.70-33.41Q288.51-35.65 293.18-35.65L293.18-35.65ZM306.24-17.60L306.24-17.60Q306.24-21.57 304.64-24.51L304.64-24.51L304.64-24.51Q303.04-27.46 300.32-29.02L300.32-29.02L300.32-29.02Q297.60-30.59 294.34-30.59L294.34-30.59L294.34-30.59Q291.07-30.59 288.38-29.06L288.38-29.06L288.38-29.06Q285.70-27.52 284.10-24.58L284.10-24.58L284.10-24.58Q282.50-21.63 282.50-17.66L282.50-17.66L282.50-17.66Q282.50-13.63 284.10-10.66L284.10-10.66L284.10-10.66Q285.70-7.68 288.38-6.11L288.38-6.11L288.38-6.11Q291.07-4.54 294.34-4.54L294.34-4.54L294.34-4.54Q297.60-4.54 300.32-6.11L300.32-6.11L300.32-6.11Q303.04-7.68 304.64-10.66L304.64-10.66L304.64-10.66Q306.24-13.63 306.24-17.60L306.24-17.60ZM324.99-40.77L324.99-40.77Q323.33-40.77 322.18-41.92L322.18-41.92L322.18-41.92Q321.02-43.07 321.02-44.74L321.02-44.74L321.02-44.74Q321.02-46.40 322.18-47.55L322.18-47.55L322.18-47.55Q323.33-48.70 324.99-48.70L324.99-48.70L324.99-48.70Q326.59-48.70 327.71-47.55L327.71-47.55L327.71-47.55Q328.83-46.40 328.83-44.74L328.83-44.74L328.83-44.74Q328.83-43.07 327.71-41.92L327.71-41.92L327.71-41.92Q326.59-40.77 324.99-40.77L324.99-40.77ZM321.98-35.07L327.81-35.07L327.81 0L321.98 0L321.98-35.07ZM353.98-30.27L344.83-30.27L344.83-9.60L344.83-9.60Q344.83-7.04 345.92-5.98L345.92-5.98L345.92-5.98Q347.01-4.93 349.70-4.93L349.70-4.93L353.98-4.93L353.98 0L348.74 0L348.74 0Q343.87 0 341.44-2.24L341.44-2.24L341.44-2.24Q339.01-4.48 339.01-9.60L339.01-9.60L339.01-30.27L334.46-30.27L334.46-35.07L339.01-35.07L339.01-43.90L344.83-43.90L344.83-35.07L353.98-35.07L353.98-30.27ZM358.85-17.66L358.85-17.66Q358.85-23.04 361.02-27.10L361.02-27.10L361.02-27.10Q363.20-31.17 367.01-33.41L367.01-33.41L367.01-33.41Q370.82-35.65 375.49-35.65L375.49-35.65L375.49-35.65Q380.10-35.65 383.49-33.66L383.49-33.66L383.49-33.66Q386.88-31.68 388.54-28.67L388.54-28.67L388.54-35.07L394.43-35.07L394.43 0L388.54 0L388.54-6.53L388.54-6.53Q386.82-3.46 383.39-1.44L383.39-1.44L383.39-1.44Q379.97 0.58 375.42 0.58L375.42 0.58L375.42 0.58Q370.75 0.58 366.98-1.73L366.98-1.73L366.98-1.73Q363.20-4.03 361.02-8.19L361.02-8.19L361.02-8.19Q358.85-12.35 358.85-17.66L358.85-17.66ZM388.54-17.60L388.54-17.60Q388.54-21.57 386.94-24.51L386.94-24.51L386.94-24.51Q385.34-27.46 382.62-29.02L382.62-29.02L382.62-29.02Q379.90-30.59 376.64-30.59L376.64-30.59L376.64-30.59Q373.38-30.59 370.69-29.06L370.69-29.06L370.69-29.06Q368.00-27.52 366.40-24.58L366.40-24.58L366.40-24.58Q364.80-21.63 364.80-17.66L364.80-17.66L364.80-17.66Q364.80-13.63 366.40-10.66L366.40-10.66L366.40-10.66Q368.00-7.68 370.69-6.11L370.69-6.11L370.69-6.11Q373.38-4.54 376.64-4.54L376.64-4.54L376.64-4.54Q379.90-4.54 382.62-6.11L382.62-6.11L382.62-6.11Q385.34-7.68 386.94-10.66L386.94-10.66L386.94-10.66Q388.54-13.63 388.54-17.60L388.54-17.60ZM404.29-47.36L410.11-47.36L410.11 0L404.29 0L404.29-47.36ZM478.14-44.29L484.35-44.29L484.35 0L478.53 0L478.53-33.02L463.81 0L459.71 0L444.93-32.96L444.93 0L439.10 0L439.10-44.29L445.38-44.29L461.76-7.68L478.14-44.29ZM492.03-17.66L492.03-17.66Q492.03-23.04 494.21-27.10L494.21-27.10L494.21-27.10Q496.38-31.17 500.19-33.41L500.19-33.41L500.19-33.41Q504.00-35.65 508.67-35.65L508.67-35.65L508.67-35.65Q513.28-35.65 516.67-33.66L516.67-33.66L516.67-33.66Q520.06-31.68 521.73-28.67L521.73-28.67L521.73-35.07L527.62-35.07L527.62 0L521.73 0L521.73-6.53L521.73-6.53Q520-3.46 516.58-1.44L516.58-1.44L516.58-1.44Q513.15 0.58 508.61 0.58L508.61 0.58L508.61 0.58Q503.94 0.58 500.16-1.73L500.16-1.73L500.16-1.73Q496.38-4.03 494.21-8.19L494.21-8.19L494.21-8.19Q492.03-12.35 492.03-17.66L492.03-17.66ZM521.73-17.60L521.73-17.60Q521.73-21.57 520.13-24.51L520.13-24.51L520.13-24.51Q518.53-27.46 515.81-29.02L515.81-29.02L515.81-29.02Q513.09-30.59 509.82-30.59L509.82-30.59L509.82-30.59Q506.56-30.59 503.87-29.06L503.87-29.06L503.87-29.06Q501.18-27.52 499.58-24.58L499.58-24.58L499.58-24.58Q497.98-21.63 497.98-17.66L497.98-17.66L497.98-17.66Q497.98-13.63 499.58-10.66L499.58-10.66L499.58-10.66Q501.18-7.68 503.87-6.11L503.87-6.11L503.87-6.11Q506.56-4.54 509.82-4.54L509.82-4.54L509.82-4.54Q513.09-4.54 515.81-6.11L515.81-6.11L515.81-6.11Q518.53-7.68 520.13-10.66L520.13-10.66L520.13-10.66Q521.73-13.63 521.73-17.60L521.73-17.60ZM543.30-28.42L543.30-28.42Q544.83-31.87 547.68-33.79L547.68-33.79L547.68-33.79Q550.53-35.71 554.62-35.71L554.62-35.71L554.62-29.70L553.09-29.70L553.09-29.70Q543.30-29.70 543.30-19.07L543.30-19.07L543.30 0L537.47 0L537.47-35.07L543.30-35.07L543.30-28.42ZM588.86 0L580.93 0L567.17-15.49L567.17 0L561.34 0L561.34-47.36L567.17-47.36L567.17-19.52L580.67-35.07L588.80-35.07L572.29-17.60L588.86 0ZM626.30-19.01L626.30-19.01Q626.30-17.41 626.11-15.55L626.11-15.55L598.08-15.55L598.08-15.55Q598.34-10.37 601.57-7.36L601.57-7.36L601.57-7.36Q604.80-4.35 609.47-4.35L609.47-4.35L609.47-4.35Q613.25-4.35 615.78-6.11L615.78-6.11L615.78-6.11Q618.30-7.87 619.33-10.82L619.33-10.82L625.60-10.82L625.60-10.82Q624.19-5.76 619.97-2.59L619.97-2.59L619.97-2.59Q615.74 0.58 609.47 0.58L609.47 0.58L609.47 0.58Q604.48 0.58 600.54-1.66L600.54-1.66L600.54-1.66Q596.61-3.90 594.37-8.03L594.37-8.03L594.37-8.03Q592.13-12.16 592.13-17.60L592.13-17.60L592.13-17.60Q592.13-23.04 594.30-27.14L594.30-27.14L594.30-27.14Q596.48-31.23 600.42-33.44L600.42-33.44L600.42-33.44Q604.35-35.65 609.47-35.65L609.47-35.65L609.47-35.65Q614.46-35.65 618.27-33.47L618.27-33.47L618.27-33.47Q622.08-31.30 624.19-27.52L624.19-27.52L624.19-27.52Q626.30-23.74 626.30-19.01L626.30-19.01ZM620.29-19.78L620.29-19.78Q620.29-23.23 618.82-25.70L618.82-25.70L618.82-25.70Q617.34-28.16 614.82-29.44L614.82-29.44L614.82-29.44Q612.29-30.72 609.22-30.72L609.22-30.72L609.22-30.72Q604.74-30.72 601.60-27.81L601.60-27.81L601.60-27.81Q598.46-24.90 598.14-19.78L598.14-19.78L620.29-19.78ZM650.24-30.27L641.09-30.27L641.09-9.60L641.09-9.60Q641.09-7.04 642.18-5.98L642.18-5.98L642.18-5.98Q643.26-4.93 645.95-4.93L645.95-4.93L650.24-4.93L650.24 0L644.99 0L644.99 0Q640.13 0 637.70-2.24L637.70-2.24L637.70-2.24Q635.26-4.48 635.26-9.60L635.26-9.60L635.26-30.27L630.72-30.27L630.72-35.07L635.26-35.07L635.26-43.90L641.09-43.90L641.09-35.07L650.24-35.07L650.24-30.27ZM660.29-40.77L660.29-40.77Q658.62-40.77 657.47-41.92L657.47-41.92L657.47-41.92Q656.32-43.07 656.32-44.74L656.32-44.74L656.32-44.74Q656.32-46.40 657.47-47.55L657.47-47.55L657.47-47.55Q658.62-48.70 660.29-48.70L660.29-48.70L660.29-48.70Q661.89-48.70 663.01-47.55L663.01-47.55L663.01-47.55Q664.13-46.40 664.13-44.74L664.13-44.74L664.13-44.74Q664.13-43.07 663.01-41.92L663.01-41.92L663.01-41.92Q661.89-40.77 660.29-40.77L660.29-40.77ZM657.28-35.07L663.10-35.07L663.10 0L657.28 0L657.28-35.07ZM690.11-35.71L690.11-35.71Q696.51-35.71 700.48-31.84L700.48-31.84L700.48-31.84Q704.45-27.97 704.45-20.67L704.45-20.67L704.45 0L698.69 0L698.69-19.84L698.69-19.84Q698.69-25.09 696.06-27.87L696.06-27.87L696.06-27.87Q693.44-30.66 688.90-30.66L688.90-30.66L688.90-30.66Q684.29-30.66 681.57-27.78L681.57-27.78L681.57-27.78Q678.85-24.90 678.85-19.39L678.85-19.39L678.85 0L673.02 0L673.02-35.07L678.85-35.07L678.85-30.08L678.85-30.08Q680.58-32.77 683.55-34.24L683.55-34.24L683.55-34.24Q686.53-35.71 690.11-35.71L690.11-35.71ZM728.45-35.65L728.45-35.65Q732.99-35.65 736.42-33.66L736.42-33.66L736.42-33.66Q739.84-31.68 741.50-28.67L741.50-28.67L741.50-35.07L747.39-35.07L747.39 0.77L747.39 0.77Q747.39 5.57 745.34 9.31L745.34 9.31L745.34 9.31Q743.30 13.06 739.49 15.17L739.49 15.17L739.49 15.17Q735.68 17.28 730.62 17.28L730.62 17.28L730.62 17.28Q723.71 17.28 719.10 14.02L719.10 14.02L719.10 14.02Q714.50 10.75 713.66 5.12L713.66 5.12L719.42 5.12L719.42 5.12Q720.38 8.32 723.39 10.27L723.39 10.27L723.39 10.27Q726.40 12.22 730.62 12.22L730.62 12.22L730.62 12.22Q735.42 12.22 738.46 9.22L738.46 9.22L738.46 9.22Q741.50 6.21 741.50 0.77L741.50 0.77L741.50-6.59L741.50-6.59Q739.78-3.52 736.38-1.47L736.38-1.47L736.38-1.47Q732.99 0.58 728.45 0.58L728.45 0.58L728.45 0.58Q723.78 0.58 719.97-1.73L719.97-1.73L719.97-1.73Q716.16-4.03 713.98-8.19L713.98-8.19L713.98-8.19Q711.81-12.35 711.81-17.66L711.81-17.66L711.81-17.66Q711.81-23.04 713.98-27.10L713.98-27.10L713.98-27.10Q716.16-31.17 719.97-33.41L719.97-33.41L719.97-33.41Q723.78-35.65 728.45-35.65L728.45-35.65ZM741.50-17.60L741.50-17.60Q741.50-21.57 739.90-24.51L739.90-24.51L739.90-24.51Q738.30-27.46 735.58-29.02L735.58-29.02L735.58-29.02Q732.86-30.59 729.60-30.59L729.60-30.59L729.60-30.59Q726.34-30.59 723.65-29.06L723.65-29.06L723.65-29.06Q720.96-27.52 719.36-24.58L719.36-24.58L719.36-24.58Q717.76-21.63 717.76-17.66L717.76-17.66L717.76-17.66Q717.76-13.63 719.36-10.66L719.36-10.66L719.36-10.66Q720.96-7.68 723.65-6.11L723.65-6.11L723.65-6.11Q726.34-4.54 729.60-4.54L729.60-4.54L729.60-4.54Q732.86-4.54 735.58-6.11L735.58-6.11L735.58-6.11Q738.30-7.68 739.90-10.66L739.90-10.66L739.90-10.66Q741.50-13.63 741.50-17.60L741.50-17.60Z" fill="#ccc"></path></g></g><style>text {
  font-size: 64px;
  font-family: Arial Black;
  dominant-baseline: central;
  text-anchor: middle;
}</style></svg>